Coordinates
version=1
nRows=23
nColumns=38
inDegrees=no

Units are S.I. units (second, meters, Newtons, ...)
If the header above contains a line with 'inDegrees', this indicates whether rotational values are in degrees (yes) or radians (no).

endheader
time	pelvis_tilt	pelvis_list	pelvis_rotation	pelvis_tx	pelvis_ty	pelvis_tz	hip_flexion_r	hip_adduction_r	hip_rotation_r	knee_angle_r	ankle_angle_r	subtalar_angle_r	mtp_angle_r	hip_flexion_l	hip_adduction_l	hip_rotation_l	knee_angle_l	ankle_angle_l	subtalar_angle_l	mtp_angle_l	lumbar_extension	lumbar_bending	lumbar_rotation	arm_flex_r	arm_add_r	arm_rot_r	elbow_flex_r	pro_sup_r	wrist_flex_r	wrist_dev_r	arm_flex_l	arm_add_l	arm_rot_l	elbow_flex_l	pro_sup_l	wrist_flex_l	wrist_dev_l
0.43	-1.09706	1.52396	-0.450204	0.705893	1.265	1.03662	0.107222	0.132921	-0.0722504	0.516547	-0.0214904	0	0	0.274938	-0.0630193	-0.106291	1.16625	-0.0767066	0	0	-0.408686	0.0808415	0.0678122	0.0745862	-0.322909	0.966375	0.317283	0.833924	0	0	0.0573302	-0.254964	0.641497	0.33866	1.1158	0	0
0.44	-0.976377	1.52744	-0.572489	0.705722	1.25438	1.0379	0.0832793	0.127645	-0.0705788	0.497683	-0.0210741	0	0	0.28717	-0.0597565	-0.117361	1.13016	-0.0756158	0	0	-0.410982	0.074437	0.0683811	0.0760553	-0.323417	0.967397	0.317352	0.83261	0	0	0.0592477	-0.255217	0.643382	0.339769	1.11373	0	0
0.45	-0.85259	1.53016	-0.698211	0.70559	1.24378	1.0389	0.060654	0.122833	-0.0686637	0.480467	-0.0202554	0	0	0.298746	-0.0568184	-0.129162	1.09165	-0.0760159	0	0	-0.412711	0.0682508	0.069205	0.0772057	-0.324403	0.968397	0.318221	0.831701	0	0	0.0606664	-0.255548	0.64437	0.341508	1.11121	0	0
0.46	-0.759133	1.53329	-0.794567	0.705455	1.23325	1.03948	0.0415717	0.118015	-0.0698998	0.465682	-0.0195217	0	0	0.311164	-0.0556484	-0.145032	1.05067	-0.0777702	0	0	-0.412354	0.0623684	0.0708144	0.078083	-0.325835	0.969215	0.319499	0.831007	0	0	0.0616789	-0.255343	0.644202	0.342823	1.10854	0	0
0.47	-0.666727	1.53513	-0.890412	0.705291	1.22253	1.03977	0.0218462	0.114654	-0.0673493	0.451022	-0.0188856	0	0	0.322054	-0.0593059	-0.171057	1.00825	-0.0819719	0	0	-0.411681	0.0574031	0.073159	0.0782716	-0.327763	0.969876	0.321451	0.830353	0	0	0.0619017	-0.254967	0.64357	0.344274	1.1067	0	0
0.48	-0.571583	1.53366	-0.990759	0.705031	1.21149	1.03988	-0.00150866	0.113452	-0.0616548	0.434831	-0.0182131	0	0	0.330652	-0.0751594	-0.223583	0.969954	-0.0923381	0	0	-0.412552	0.0537023	0.0777725	0.077465	-0.331043	0.971098	0.325202	0.829785	0	0	0.0609584	-0.254559	0.642842	0.346736	1.10579	0	0
0.49	-0.49424	1.53553	-1.07044	0.705117	1.20094	1.03973	-0.0194692	0.110045	-0.0584987	0.421647	-0.01665	0	0	0.338289	-0.0746294	-0.24477	0.919035	-0.0971989	0	0	-0.41165	0.0497228	0.0793242	0.0780649	-0.333181	0.972013	0.327012	0.829002	0	0	0.0618619	-0.253347	0.642489	0.346966	1.10606	0	0
0.5	-0.435508	1.53754	-1.13095	0.705286	1.19053	1.03936	-0.0359608	0.106706	-0.0578883	0.409637	-0.0149637	0	0	0.344933	-0.0722796	-0.261923	0.863486	-0.102579	0	0	-0.410552	0.0467655	0.0805991	0.079131	-0.335038	0.973092	0.327967	0.828201	0	0	0.0632372	-0.251558	0.641733	0.346361	1.10696	0	0
0.51	-0.402493	1.54091	-1.16492	0.705559	1.18031	1.03869	-0.0491797	0.103004	-0.0594337	0.400441	-0.0136198	0	0	0.351058	-0.0653361	-0.267114	0.801538	-0.106859	0	0	-0.40841	0.0444155	0.0811523	0.0807956	-0.336269	0.974007	0.327794	0.827403	0	0	0.0652655	-0.249267	0.640775	0.344416	1.10801	0	0
0.52	-0.384139	1.54556	-1.18366	0.705896	1.17018	1.03778	-0.0594883	0.0989119	-0.0633535	0.394011	-0.0124167	0	0	0.35523	-0.0540202	-0.25936	0.731749	-0.111713	0	0	-0.405317	0.0422126	0.081314	0.0827687	-0.336709	0.974896	0.326303	0.826568	0	0	0.0676362	-0.246945	0.639639	0.341874	1.10968	0	0
0.53	-0.391905	1.55086	-1.17628	0.706238	1.16006	1.0366	-0.0674039	0.0949106	-0.0696092	0.390599	-0.0111046	0	0	0.357976	-0.0424013	-0.246481	0.658296	-0.118119	0	0	-0.401347	0.0403686	0.0815291	0.0846993	-0.336715	0.97576	0.324175	0.825857	0	0	0.0695886	-0.244944	0.638033	0.339838	1.1115	0	0
0.54	-0.454338	1.55579	-1.1157	0.706604	1.14983	1.03512	-0.0732391	0.090972	-0.078394	0.391896	-0.00922559	0	0	0.361778	-0.0364723	-0.246732	0.59092	-0.128183	0	0	-0.396842	0.0390249	0.0830433	0.0861852	-0.337353	0.97676	0.322729	0.825226	0	0	0.0708284	-0.24263	0.636227	0.338242	1.11349	0	0
0.55	-0.630219	1.56124	-0.942784	0.707029	1.13963	1.03327	-0.0747855	0.0859634	-0.0905846	0.400761	-0.00624892	0	0	0.367082	-0.0312941	-0.250515	0.527676	-0.140371	0	0	-0.39123	0.037378	0.085643	0.0871347	-0.338528	0.977652	0.322117	0.824188	0	0	0.0713708	-0.240437	0.633628	0.337548	1.11532	0	0
0.56	-1.5386	1.56615	-0.0366126	0.707544	1.12921	1.03103	-0.0726844	0.0803418	-0.105889	0.414028	-0.00245861	0	0	0.3753	-0.0255775	-0.2528	0.471561	-0.151489	0	0	-0.383254	0.0359378	0.0871779	0.0872899	-0.339361	0.9783	0.321494	0.823003	0	0	0.0713124	-0.237983	0.631109	0.336028	1.11714	0	0
0.57	-2.68918	1.56235	1.11206	0.708098	1.11857	1.02863	-0.0708671	0.0750697	-0.118689	0.426761	0.0019064	0	0	0.385082	-0.0197278	-0.254276	0.424378	-0.160497	0	0	-0.374711	0.0345137	0.088227	0.0870232	-0.339683	0.97906	0.320351	0.821968	0	0	0.0707299	-0.235509	0.628284	0.334069	1.11878	0	0
0.58	-3.01283	1.55673	1.43375	0.708783	1.10784	1.02633	-0.0712739	0.0691673	-0.127819	0.437918	0.00645411	0	0	0.393101	-0.0128325	-0.256166	0.382369	-0.167941	0	0	-0.36786	0.0320862	0.0886535	0.0870801	-0.339803	0.980247	0.319025	0.821363	0	0	0.0700843	-0.233188	0.625297	0.332161	1.12039	0	0
0.59	3.07814	1.55243	1.62337	0.709544	1.09695	1.02424	-0.0743979	0.0622429	-0.13345	0.447859	0.0106653	0	0	0.398032	-0.00499336	-0.258028	0.344276	-0.175169	0	0	-0.363174	0.0285012	0.088787	0.0873614	-0.339833	0.981111	0.317836	0.820597	0	0	0.0690882	-0.231494	0.622731	0.331021	1.12296	0	0
0.6	2.90115	1.54949	1.79626	0.710175	1.08578	1.02234	-0.080145	0.0545387	-0.135375	0.456942	0.0146961	0	0	0.399984	0.00308742	-0.258719	0.311403	-0.182798	0	0	-0.360414	0.0234372	0.0897647	0.087527	-0.33962	0.981919	0.316751	0.819795	0	0	0.0673146	-0.230595	0.619092	0.331393	1.12617	0	0
0.61	2.73083	1.54784	1.96178	0.710687	1.07435	1.02067	-0.0889659	0.0472168	-0.133564	0.463959	0.0174889	0	0	0.400205	0.0101646	-0.259395	0.287399	-0.188301	0	0	-0.359254	0.0179481	0.0911698	0.0874284	-0.339666	0.982685	0.316495	0.819665	0	0	0.0649682	-0.23041	0.615243	0.333139	1.12893	0	0
0.62	2.56212	1.54692	2.12537	0.711088	1.06271	1.01914	-0.0991991	0.0403325	-0.129672	0.4715	0.0194436	0	0	0.400172	0.0159355	-0.261569	0.273265	-0.191872	0	0	-0.35889	0.01244	0.0931596	0.0866131	-0.339941	0.982772	0.317051	0.819805	0	0	0.0613161	-0.23177	0.610761	0.337883	1.13056	0	0
0.63	2.40971	1.54648	2.27281	0.711418	1.05089	1.01767	-0.1103	0.0344804	-0.123948	0.479153	0.0205002	0	0	0.400813	0.0199491	-0.265189	0.270676	-0.192528	0	0	-0.358915	0.00757485	0.0957061	0.0849513	-0.340582	0.982084	0.318672	0.820056	0	0	0.0560491	-0.234744	0.605225	0.346517	1.13184	0	0
0.64	2.27775	1.54622	2.40021	0.711722	1.03886	1.01621	-0.120764	0.0292193	-0.118628	0.488879	0.0200862	0	0	0.402594	0.0223784	-0.270211	0.279716	-0.190596	0	0	-0.358734	0.00345561	0.0989662	0.0822436	-0.341389	0.980704	0.320743	0.820242	0	0	0.0500199	-0.238258	0.599805	0.356626	1.13306	0	0
0.65	2.15017	1.54617	2.52355	0.711977	1.02661	1.01481	-0.130991	0.0243767	-0.113921	0.499564	0.0180271	0	0	0.404756	0.0236105	-0.27671	0.297753	-0.188579	0	0	-0.358765	-0.000362092	0.102678	0.0789107	-0.341676	0.978803	0.322374	0.820444	0	0	0.0439302	-0.241727	0.59453	0.366547	1.13454	0	0
